# xmcd
#
# Track frame offsets: 
#        150
#        13746
#        25470
#        38539
#        51463
#        65091
#        77018
#        88299
#        100330
#        112154
#        125889
#        138818
#        151686
#        163338
#        174801
#        187888
#        199102
#        211326
#        223836
#        235790
#        246099
#        257854
#        268826
#        279288
#        289718
#        300589
#        310985
#        324893
#        336027
#
# Disc length: 4622 seconds
#
# Revision: 1
# Processed by: cddbd v1.5.2PL0 Copyright (c) Steve Scherf et al.
# Submitted via: ExactAudioCopyFreeDBPlugin 1.0
#
DISCID=a9120c1d
DTITLE=Verschiedene - Milestones Of Legends - Delta Blues - CD04 - Rob
DTITLE=ert Johnson
DYEAR=2018
DGENRE=Blues
TTITLE0=Robert Johnson - I Believe IÄll Dust My Broom
TTITLE1=Robert Johnson - Phonograph Blues
TTITLE2=Robert Johnson - Ramblin' on My Mind
TTITLE3=Robert Johnson - Kindhearted Woman Blues
TTITLE4=Robert Johnson - Terraplane Blues
TTITLE5=Robert Johnson - I'm a Steady Rollin' Man
TTITLE6=Robert Johnson - Walking Blues
TTITLE7=Robert Johnson - Last Fair Deal Gone Down
TTITLE8=Robert Johnson - Dead Shrimp Blues
TTITLE9=Robert Johnson - Sweet Home Chicago
TTITLE10=Robert Johnson - 32-20 Blues
TTITLE11=Robert Johnson - Come on in My Kitchen
TTITLE12=Robert Johnson - If I Had Possession over Judgement Day
TTITLE13=Robert Johnson - Me and the Devil Blues
TTITLE14=Robert Johnson - Preaching Blues (Up Jumped the Devil)
TTITLE15=Robert Johnson - Stones in My Passway
TTITLE16=Robert Johnson - Cross Road Blues
TTITLE17=Robert Johnson - Travelling Riverside Blues
TTITLE18=Robert Johnson - When You Got a Good Friend
TTITLE19=Robert Johnson - Milkcow's Calf Blues
TTITLE20=Robert Johnson - Hellhound on My Trail
TTITLE21=Robert Johnson - From Four 'Til Late
TTITLE22=Robert Johnson - Honeymoon Blues
TTITLE23=Robert Johnson - Stop Breakin' Down Blues
TTITLE24=Robert Johnson - Malted Milk
TTITLE25=Robert Johnson - Little Queen of Spades
TTITLE26=Robert Johnson - They're Red Hot
TTITLE27=Robert Johnson - Drunken Hearted Man
TTITLE28=Robert Johnson - Love in Vain
EXTD=
EXTT0=
EXTT1=
EXTT2=
EXTT3=
EXTT4=
EXTT5=
EXTT6=
EXTT7=
EXTT8=
EXTT9=
EXTT10=
EXTT11=
EXTT12=
EXTT13=
EXTT14=
EXTT15=
EXTT16=
EXTT17=
EXTT18=
EXTT19=
EXTT20=
EXTT21=
EXTT22=
EXTT23=
EXTT24=
EXTT25=
EXTT26=
EXTT27=
EXTT28=
PLAYORDER=
